<svg width="12" height="11" viewBox="0 0 12 11" fill="none" xmlns="http://www.w3.org/2000/svg">
<path d="M2.00008 10.8333C1.63341 10.8333 1.31964 10.7029 1.05875 10.442C0.797859 10.1811 0.667192 9.86711 0.666748 9.5V8.16667C0.666748 7.97778 0.730748 7.81956 0.858748 7.692C0.986748 7.56444 1.14497 7.50044 1.33341 7.5C1.52186 7.49956 1.6803 7.56356 1.80875 7.692C1.93719 7.82044 2.00097 7.97867 2.00008 8.16667V9.5H10.0001V8.16667C10.0001 7.97778 10.0641 7.81956 10.1921 7.692C10.3201 7.56444 10.4783 7.50044 10.6667 7.5C10.8552 7.49956 11.0136 7.56356 11.1421 7.692C11.2705 7.82044 11.3343 7.97867 11.3334 8.16667V9.5C11.3334 9.86667 11.203 10.1807 10.9421 10.442C10.6812 10.7033 10.3672 10.8338 10.0001 10.8333H2.00008ZM5.33342 2.73333L4.08341 3.98333C3.95008 4.11667 3.79186 4.18067 3.60875 4.17533C3.42564 4.17 3.26719 4.10044 3.13341 3.96667C3.01119 3.83333 2.94719 3.67778 2.94141 3.5C2.93564 3.32222 2.99964 3.16667 3.13341 3.03333L5.53341 0.633333C5.60008 0.566666 5.6723 0.519555 5.75008 0.491999C5.82786 0.464444 5.91119 0.450444 6.00008 0.45C6.08897 0.449555 6.1723 0.463555 6.25008 0.491999C6.32786 0.520444 6.40008 0.567555 6.46675 0.633333L8.86675 3.03333C9.00008 3.16667 9.06408 3.32222 9.05875 3.5C9.05341 3.67778 8.98941 3.83333 8.86675 3.96667C8.73341 4.1 8.57519 4.16955 8.39208 4.17533C8.20897 4.18111 8.05053 4.11711 7.91675 3.98333L6.66675 2.73333V7.5C6.66675 7.68889 6.60275 7.84733 6.47475 7.97533C6.34675 8.10333 6.18853 8.16711 6.00008 8.16667C5.81164 8.16622 5.65341 8.10222 5.52541 7.97467C5.39742 7.84711 5.33342 7.68889 5.33342 7.5V2.73333Z" fill="#3D3D42"/>
</svg>
